<?xml version="1.0" standalone="no"?><!DOCTYPE svg PUBLIC "-//W3C//DTD SVG 1.1//EN" "http://www.w3.org/Graphics/SVG/1.1/DTD/svg11.dtd"><svg class="icon" height="512" viewBox="0 0 1024 1024" version="1.1" xmlns="http://www.w3.org/2000/svg"><path d="M512 0C229.248 0 0 229.248 0 512s229.248 512 512 512 512-229.248 512-512C1024 229.184 794.752 0 512 0zM644.352 511.936 560.448 512l-0.064 307.2L445.248 819.2 445.248 512l-76.8 0L368.448 406.144l76.8-0.064L445.12 343.744C445.12 257.344 468.544 204.8 570.24 204.8l84.736 0 0 105.92L601.984 310.72c-39.616 0-41.536 14.784-41.536 42.368L560.32 406.08l95.232 0L644.352 511.936z" /></svg>